<?xml version="1.0" encoding="UTF-8"?>
<svg version="1.1" xmlns="http://www.w3.org/2000/svg" width="207" height="170">
<path d="M0 0 C11.88 0 23.76 0 36 0 C37.12019531 3.92648438 38.24039063 7.85296875 39.39453125 11.8984375 C40.29537868 15.05462528 41.1963615 18.21077434 42.097435 21.36689758 C43.04455402 24.68444025 43.99144159 28.00204856 44.93774414 31.31982422 C46.02675792 35.13790913 47.1168713 38.95567968 48.20703125 42.7734375 C48.54152786 43.94675629 48.87602448 45.12007507 49.22065735 46.32894897 C51.09836038 52.90113111 53.0145014 59.45954084 55 66 C56.790436 62.72175433 57.84487924 59.43886911 58.87939453 55.85449219 C59.239617 54.61350769 59.59983948 53.37252319 59.97097778 52.09393311 C60.3583391 50.74493759 60.74561535 49.39591765 61.1328125 48.046875 C61.53318044 46.66243882 61.93389128 45.27810176 62.33493042 43.89385986 C63.38719469 40.2583881 64.43480521 36.62159137 65.48144531 32.98449707 C66.73946289 28.61651305 68.00326649 24.25020009 69.26609802 19.88360596 C71.18182926 13.25700547 73.09020826 6.6283277 75 0 C86.55 0 98.1 0 110 0 C110 37.62 110 75.24 110 114 C102.41 114 94.82 114 87 114 C86.67 91.23 86.34 68.46 86 45 C80.11787063 63.3835744 80.11787063 63.3835744 74.24243164 81.76928711 C73.50691693 84.06371748 72.77117433 86.35807481 72.03515625 88.65234375 C71.65161987 89.85636841 71.2680835 91.06039307 70.8729248 92.30090332 C70.32493225 94.00615173 70.32493225 94.00615173 69.76586914 95.74584961 C69.44832169 96.73846298 69.13077423 97.73107635 68.80360413 98.75376892 C68 101 68 101 67 102 C58.75 102 50.5 102 42 102 C36.06 83.52 30.12 65.04 24 46 C23.67 64.48 23.34 82.96 23 102 C15.41 102 7.82 102 0 102 C0 68.34 0 34.68 0 0 Z " fill="#1D94DD" transform="translate(96,0)"/>
<path d="M0 0 C26.73 0 53.46 0 81 0 C81 6.93 81 13.86 81 21 C62.52 21 44.04 21 25 21 C25 29.25 25 37.5 25 46 C41.17 46 57.34 46 74 46 C74 52.93 74 59.86 74 67 C57.83 67 41.66 67 25 67 C25 82.51 25 98.02 25 114 C16.75 114 8.5 114 0 114 C0 76.38 0 38.76 0 0 Z " fill="#1D94DD" transform="translate(1,0)"/>
<path d="M0 0 C0.99 0 1.98 0 3 0 C3.31130859 0.8353125 3.31130859 0.8353125 3.62890625 1.6875 C8.49436397 13.7391777 17.15811605 20.58393225 28.89892578 25.85205078 C37.3385382 29.35181489 46.11945819 31.66853816 55 33.75 C55.84038818 33.94875732 56.68077637 34.14751465 57.54663086 34.35229492 C72.88111491 37.73979149 88.22702893 38.40929408 103.875 38.375 C104.81376984 38.37445618 105.75253967 38.37391235 106.71975708 38.37335205 C137.49928556 38.29170614 174.454248 35.23375646 197.78125 12.609375 C201.0479087 8.76760033 203.19427075 4.68891021 205 0 C205.66 0 206.32 0 207 0 C206.45969932 11.67049464 201.54008588 19.12060844 193 27 C178.32681306 38.3098116 160.9357436 44.1434349 143 48 C142.24960449 48.16516113 141.49920898 48.33032227 140.72607422 48.50048828 C116.67416808 53.52277142 87.95392353 53.49894101 64 48 C62.81833252 47.74259033 62.81833252 47.74259033 61.61279297 47.47998047 C41.31676949 42.97288575 17.48119891 34.56168493 5.1875 16.8125 C1.86490793 11.38907618 0.5960088 6.28850097 0 0 Z " fill="#1D94DD" transform="translate(0,119)"/>
</svg>
